<svg xmlns="http://www.w3.org/2000/svg" xmlns:xlink="http://www.w3.org/1999/xlink" version="1.1"  x="0px" y="0px" width="32" height="32" viewBox="0 0 24 24" style="enable-background:new 0 0 24 24;" xml:space="preserve" viewbox="0 0 32 32">
<path id="263650464__x3C_Trazado_x3E_" d="M12,4c-4.417,0-8,3.583-8,8s3.583,8,8,8c1.406,0,2.727-0.364,3.872-1.003l-0.979-1.771  C14.031,17.703,13.055,18,12,18c-3.313,0-6-2.688-6-6c0-3.312,2.688-6,6-6c3.313,0,6,2.688,6,6c0,1.708-0.723,2-1.458,2  c-0.737,0-1.209-0.598-1.209-1.333V9.333C15.333,9.333,14.21,8,12,8s-4,1.791-4,4c0,2.21,1.79,4,4,4c1.15,0,2-0.361,2.557-0.706  C15.094,15.729,15.771,16,16.542,16C18.384,16,20,14.792,20,12C20,7.583,16.417,4,12,4z M10,12c0-1.104,0.896-2,2-2  c0.516,0,0.979,0.146,1.333,0.299v2.368c0,0.338,0.062,0.658,0.146,0.966C13.114,13.811,12.589,14,12,14C10.896,14,10,13.104,10,12z  "></path>
</svg>