<svg xmlns="http://www.w3.org/2000/svg" xmlns:xlink="http://www.w3.org/1999/xlink" class="addmask" version="1.1"  x="0px" y="0px" width="32" height="32" viewBox="0 0 24 24" enable-background="new 0 0 24 24" xml:space="preserve" style="fill: rgb(0, 0, 0);" viewbox="0 0 32 32">
<g class="addon_content" transform="translate(5,4) scale(0.8,0.8)">
	<g>
		<defs>
			<path class="mask_container" id="263_gear_mask" d="M-17.5-17.5v72h72v-72H-17.5z M25.26,19.62c0.141,0.52,0.07,1.06-0.21,1.52l-0.99,1.73    c-0.359,0.62-1.02,1-1.729,1c-0.29,0-0.58-0.07-0.84-0.19C21.4,24.7,20.54,25.5,19.5,25.5h-2c-1.04,0-1.9-0.8-1.99-1.82    c-0.26,0.12-0.55,0.19-0.84,0.19c-0.71,0-1.37-0.38-1.73-1l-1-1.74c-0.26-0.45-0.34-0.99-0.2-1.51c0.12-0.46,0.39-0.851,0.78-1.12    c-0.39-0.27-0.66-0.67-0.78-1.12c-0.14-0.52-0.06-1.06,0.21-1.52l0.99-1.73c0.36-0.62,1.02-1,1.73-1c0.29,0,0.58,0.07,0.84,0.19    c0.09-1.021,0.95-1.82,1.99-1.82h2c1.04,0,1.9,0.8,1.99,1.82c0.26-0.12,0.55-0.19,0.84-0.19c0.71,0,1.37,0.38,1.729,0.99l1,1.75    c0.271,0.45,0.341,0.99,0.2,1.51c-0.12,0.46-0.39,0.851-0.779,1.12C24.87,18.77,25.14,19.17,25.26,19.62z" transform="translate(5,4) scale(0.8,0.8)" style="fill: rgb(0, 0, 0);"></path>
		</defs>
		<clipPath id="263_gear_mask_1_">
			<use xlink:href="#263_gear_mask" overflow="visible"></use>
		</clipPath>
		
	</g>
	<path id="263_gear_addon" d="M23.58,19.7l-1.6-0.92C22,18.69,22,18.59,22,18.5s0-0.19-0.02-0.28l1.6-0.92c0.24-0.14,0.32-0.439,0.18-0.68  l-1-1.74c-0.14-0.239-0.439-0.319-0.68-0.18l-1.6,0.92c-0.15-0.11-0.311-0.2-0.48-0.271V13.5c0-0.279-0.22-0.5-0.5-0.5h-2  c-0.279,0-0.5,0.221-0.5,0.5v1.85c-0.17,0.07-0.33,0.16-0.48,0.271l-1.6-0.92c-0.24-0.14-0.54-0.06-0.68,0.18l-1,1.74  c-0.141,0.24-0.061,0.54,0.18,0.68l1.6,0.92C15,18.31,15,18.41,15,18.5s0,0.19,0.02,0.28l-1.6,0.92c-0.24,0.14-0.32,0.439-0.18,0.68  l1,1.74c0.14,0.24,0.439,0.32,0.68,0.18l1.6-0.92c0.15,0.11,0.311,0.2,0.48,0.271v1.85c0,0.28,0.221,0.5,0.5,0.5h2  c0.28,0,0.5-0.22,0.5-0.5v-1.85c0.17-0.07,0.33-0.16,0.48-0.271l1.6,0.92c0.24,0.141,0.54,0.061,0.68-0.18l1-1.74  C23.9,20.14,23.82,19.84,23.58,19.7z M18.5,20.5c-1.1,0-2-0.9-2-2s0.9-2,2-2s2,0.9,2,2S19.6,20.5,18.5,20.5z" style="fill: rgb(0, 0, 0);"></path>
</g>
<g id="263_gear_icon_placeholder" clip-path="url(#263_gear_mask_1_)">
	<g class="icnplhld">
                	  <!--?xml version="1.0" encoding="utf-8"?-->
<!-- Generator: Adobe Illustrator 16.0.0, SVG Export Plug-In . SVG Version: 6.00 Build 0)  -->
<g xmlns="http://www.w3.org/2000/svg" xmlns:xlink="http://www.w3.org/1999/xlink" version="1.1" x="0px" y="0px" width="24px" height="24px" viewBox="0 0 24 24" enable-background="new 0 0 24 24" xml:space="preserve" preserveAspectRatio="none" class="svgmask">
<path d="M12,4c2.209,0,4,1.791,4,4s-1.791,4-4,4s-4-1.791-4-4S9.791,4,12,4z M12,14c-3,0-8,1-8,4v2h16v-2C20,15,15,14,12,14z" style="fill: rgb(0, 0, 0);"></path>
</g>
                    <!--<div class="menu-plus-icon">
                          <p style="color: #fff; font-size: 18px;"><b>+</b></p>
                    </div>-->
                	</g>
</g>
</svg>