<svg xmlns="http://www.w3.org/2000/svg" xmlns:xlink="http://www.w3.org/1999/xlink" version="1.1"  x="0px" y="0px" width="32" height="32" viewBox="0 0 24 24" style="enable-background:new 0 0 24 24;" xml:space="preserve" viewbox="0 0 32 32">
<path d="M19,3h-4.18C14.4,1.84,13.3,1,12,1S9.6,1.84,9.18,3H5C3,3,3,5,3,5v15c0,0,0,2,2,2h14c2,0,2-2,2-2V5C21,3,19,3,19,3z M12,3  c0.55,0,1,0.45,1,1s-0.45,1-1,1s-1-0.45-1-1S11.45,3,12,3z M19,20H5V5h2v3h10V5h2V20z"></path>
<polygon points="17.71,10.71 11,17.41 7.29,13.71 8.71,12.29 11,14.59 16.29,9.29 "></polygon>
</svg>