<svg xmlns="http://www.w3.org/2000/svg" xmlns:xlink="http://www.w3.org/1999/xlink" version="1.1"  x="0px" y="0px" width="32" height="32" viewBox="0 0 24 24" style="enable-background:new 0 0 24 24;" xml:space="preserve" viewbox="0 0 32 32">
<path id="2631050151__x3C_Trazado_x5F_compuesto_x3E_" d="M14,7.33v9.34c0.63,0.2,1.29,0.47,2,0.83v-11C15.28,6.86,14.63,7.13,14,7.33z M6,8  c-2.21,0-4,1.79-4,4c0,1.86,1.27,3.43,3,3.87V21h3v-5c0.72,0,1.37,0,2,0.02c0.69,0.03,1.35,0.07,2,0.181V7.81C10.75,8,9.5,8,8,8H6z   M21,3.66l-3.46,2l1,1.73l3.46-2L21,3.66z M18.54,16.61l-1,1.729l3.46,2l1-1.729L18.54,16.61z M19,11v2h4v-2H19z"></path>
</svg>