<svg xmlns="http://www.w3.org/2000/svg" xmlns:xlink="http://www.w3.org/1999/xlink" version="1.1"  x="0px" y="0px" width="32" height="32" viewBox="0 0 24 24" style="enable-background:new 0 0 24 24;" xml:space="preserve" preserveAspectRatio="none" viewbox="0 0 32 32">
<path id="2632251006__x3C_Trazado_x3E_" d="M19,6v10c0,2.42-1.46,7-7,7s-7-4.58-7-7V6c0-1.73,1.04-5,5-5s5,3.27,5,5v10c0,1.21-0.8,3-3,3  s-3-1.79-3-3V6h2v10c0.01,0.45,0.19,1,1,1s0.99-0.55,1-1.01V6c-0.01-0.5-0.18-3-3-3S7.01,5.5,7,6.01V16c0,0.51,0.18,5,5,5  c4.94,0,5-4.8,5-5V6H19z"></path>
</svg>