<svg xmlns="http://www.w3.org/2000/svg" xmlns:xlink="http://www.w3.org/1999/xlink" version="1.1"  x="0px" y="0px" width="32" height="32" viewBox="0 0 24 24" enable-background="new 0 0 24 24" xml:space="preserve" viewbox="0 0 32 32">
<path d="M20.957,19.29C20.829,19.712,20.439,20,20,20h-6c0,1.104-0.896,2-2,2s-2-0.896-2-2H4c-0.44,0-0.829-0.288-0.957-0.71  s0.036-0.878,0.402-1.122L5,17c0,0,0.526-3.688,1-7c0.413-2.884,2.145-4.533,4.772-4.913L10,2h4l-0.771,3.087  C15.854,5.467,17.587,7.116,18,10c0.475,3.313,1,7,1,7l1.555,1.168C20.921,18.412,21.085,18.868,20.957,19.29z"></path>
</svg>