<svg xmlns="http://www.w3.org/2000/svg" xmlns:xlink="http://www.w3.org/1999/xlink" version="1.1"  x="0px" y="0px" width="32" height="32" viewBox="0 0 24 24" style="enable-background:new 0 0 24 24;" xml:space="preserve" viewbox="0 0 32 32">
<path id="263650468__x3C_Trazado_x3E_" d="M12,2C6.48,2,2,6.48,2,12c0,5.52,4.48,10,10,10c5.52,0,10-4.48,10-10C22,6.48,17.52,2,12,2z M4,12  c0-4.41,3.59-8,8-8c1.84,0,3.54,0.63,4.9,1.68L5.68,16.9C4.63,15.54,4,13.84,4,12z M12,20c-1.84,0-3.54-0.63-4.9-1.68L18.32,7.1  C19.37,8.46,20,10.16,20,12C20,16.41,16.41,20,12,20z"></path>
</svg>