<svg version="1.1"  xmlns="http://www.w3.org/2000/svg" xmlns:xlink="http://www.w3.org/1999/xlink" x="0px" y="0px" width="32" height="32" viewBox="0 0 24 24" style="enable-background:new 0 0 24 24;" xml:space="preserve" viewbox="0 0 32 32">
<path d="M17.414,3l-2-2H9.586l-2,2H4v20h17V3H17.414z M10.414,3h4.172L16,4.414V5H9V4.414L10.414,3z M19,21H6V5h1v2h11V5h1V21z
	 M13,10h4v2h-4V10z M10.47,8.47L11.53,9.53l-2.519,2.519l-1.999-1.914L8.05,9.052l0.939,0.898L10.47,8.47z M13,15h4v2h-4V15z M8,14
	h3v3H8V14z"></path>
</svg>