<svg xmlns="http://www.w3.org/2000/svg" xmlns:xlink="http://www.w3.org/1999/xlink" version="1.1"  x="0px" y="0px" width="32" height="32" viewBox="0 0 24 24" enable-background="new 0 0 24 24" xml:space="preserve" preserveAspectRatio="none" viewbox="0 0 32 32">
<path d="M16.95,9.5C16.695,12.023,14.59,14,12,14s-4.695-1.977-4.95-4.5H16.95z M17.098,6l-0.038-0.231  c-0.388-1.371-1.326-2.509-2.559-3.165v3.354H13V2.086C12.7,2.032,12.392,2,12.077,2C11.706,2,11.349,2.052,11,2.126v3.833H9.5  V2.697c-1.156,0.667-2.035,1.76-2.406,3.072L7.013,6H6v2h12V6H17.098z M6,16.914C4.295,17.568,3,18.604,3,20v2h3V16.914z M8,16.349  V22h8v-5.655C14.479,16.038,11.391,15.633,8,16.349z M18,16.935V22h3v-2C21,18.605,19.696,17.61,18,16.935z"></path>
</svg>