<svg xmlns="http://www.w3.org/2000/svg" xmlns:xlink="http://www.w3.org/1999/xlink" version="1.1"  x="0px" y="0px" width="32" height="32" viewBox="0 0 24 24" style="enable-background:new 0 0 24 24;" xml:space="preserve" viewbox="0 0 32 32">
<path d="M12,2C6.48,2,2,6.48,2,12c0,5.52,4.48,10,10,10c5.52,0,10-4.48,10-10C22,6.48,17.52,2,12,2z M12,20c-4.41,0-8-3.59-8-8  c0-3.87,2.77-7.11,6.43-7.85L8.29,6.29c-0.39,0.39-0.39,1.03,0,1.42C8.49,7.9,8.74,8,9,8h6v2h-2c0-0.55-0.45-1-1-1c0,0-0.5,0-2,0  c-1.66,0-3,1.34-3,3v1c0,1.1,0.9,2,2,2h2c0,0,0,1.82,0,2.5c0,1.1,0.9,2,2,2c1.1,0,2-0.9,2-2V17l2-2c0.78-0.78,0.78-2.05,0-2.83  c-0.06-0.06-0.14-0.11-0.21-0.17H20C20,16.41,16.41,20,12,20z"></path>
</svg>