<svg version="1.1"  xmlns="http://www.w3.org/2000/svg" xmlns:xlink="http://www.w3.org/1999/xlink" x="0px" y="0px" width="32" height="32" viewBox="0 0 24 24" style="enable-background:new 0 0 24 24;" xml:space="preserve" preserveAspectRatio="none" viewbox="0 0 32 32">
<path d="M17.31,5.75L18,5.061l0.47,0.47L19.53,4.47l-2-2L16.47,3.53L16.939,4l-0.946,0.946C15.072,4.488,14.066,4.177,13,4.059V3h1
	V1h-4v2h1v1.059C9.934,4.177,8.928,4.488,8.007,4.946L7.061,4l0.47-0.47L6.47,2.47l-2,2L5.53,5.53L6,5.061l0.69,0.69
	C4.458,7.39,3,10.025,3,13c0,4.963,4.038,9,9,9c4.963,0,9-4.037,9-9C21,10.025,19.542,7.39,17.31,5.75z M12,20c-3.86,0-7-3.141-7-7
	c0-3.86,3.14-7,7-7c3.859,0,7,3.14,7,7C19,16.859,15.859,20,12,20z M17,12v2h-6V8h2v4H17z"></path>
</svg>