<svg version="1.1"  xmlns="http://www.w3.org/2000/svg" xmlns:xlink="http://www.w3.org/1999/xlink" x="0px" y="0px" width="32" height="32" viewBox="0 0 24 24" style="enable-background:new 0 0 24 24;" xml:space="preserve" preserveAspectRatio="none" viewbox="0 0 32 32">
<path d="M18,7H6C5.448,7,5,7.448,5,8v12h1v2h2v-2h8v2h2v-2h1V8C19,7.448,18.553,7,18,7z M6,9c0-0.552,0.448-1,1-1h10
	c0.553,0,1,0.448,1,1v3H6V9z M6,16.5C6,15.672,6.672,15,7.5,15S9,15.672,9,16.5S8.328,18,7.5,18S6,17.328,6,16.5z M15,16.5
	c0-0.828,0.672-1.5,1.5-1.5s1.5,0.672,1.5,1.5S17.328,18,16.5,18S15,17.328,15,16.5z M22,10v2c0,0.552-0.447,1-1,1v2
	c0,0.553-0.447,1-1,1V8c0-1.104-0.896-2-2-2H6C4.896,6,4,6.896,4,8v8c-0.552,0-1-0.447-1-1v-2c-0.552,0-1-0.448-1-1v-2
	c0-0.552,0.448-1,1-1V3c0-0.552,0.448-1,1-1h16c0.553,0,1,0.448,1,1v6C21.553,9,22,9.448,22,10z"></path>
</svg>