<svg xmlns="http://www.w3.org/2000/svg" xmlns:xlink="http://www.w3.org/1999/xlink" version="1.1"  x="0px" y="0px" width="32" height="32" viewBox="0 0 24 24" style="enable-background:new 0 0 24 24;" xml:space="preserve" preserveAspectRatio="none" viewbox="0 0 32 32">
<path d="M20,11v-0.62C20,9.06,18.94,8,17.62,8H15v8h2.62c1.32,0,2.38-1.06,2.38-2.38V13h2v5c0,1.1-0.9,2-2,2H4c-1.1,0-2-0.9-2-2v-5  h2v0.62C4,14.94,5.06,16,6.38,16H9v-1h2c0.55,0,1-0.45,1-1s-0.45-1-1-1H9v-2h2c0.55,0,1-0.45,1-1s-0.45-1-1-1H9V8H6.38  C5.06,8,4,9.06,4,10.38V11H2V6c0-1.1,0.9-2,2-2h16c1.1,0,2,0.9,2,2v5H20z"></path>
</svg>