<svg xmlns="http://www.w3.org/2000/svg" xmlns:xlink="http://www.w3.org/1999/xlink" version="1.1"  x="0px" y="0px" width="32" height="32" viewBox="0 0 24 24" style="enable-background:new 0 0 24 24;" xml:space="preserve" viewbox="0 0 32 32">
<path d="M21.031,18V9.25c0-1.241-1.01-2.25-2.25-2.25H16V2H2v20h14V8.5h2.781c0.413,0,0.75,0.336,0.75,0.75V18H19v4h3v-4H21.031z   M6.202,16.012l-1.053-1.068c1.04-1.024,0.858-1.73,0.266-2.475c-1.514-1.901-0.627-3.486,0.383-4.481l1.053,1.068  c-1.043,1.027-0.874,1.71-0.262,2.478C8.099,13.434,7.212,15.018,6.202,16.012z M12.202,16.012l-1.053-1.068  c1.04-1.024,0.858-1.73,0.266-2.475c-1.514-1.901-0.627-3.486,0.383-4.481l1.053,1.068c-1.043,1.027-0.873,1.71-0.262,2.478  C14.099,13.434,13.212,15.018,12.202,16.012z"></path>
</svg>