<svg xmlns="http://www.w3.org/2000/svg" xmlns:xlink="http://www.w3.org/1999/xlink" version="1.1"  x="0px" y="0px" width="32" height="32" viewBox="0 0 24 24" style="enable-background:new 0 0 24 24;" xml:space="preserve" viewbox="0 0 32 32">
<path d="M21.962,11.75H18V11c0-0.552-0.447-1-1-1h-1V9.5C16,7.57,14.43,6,12.5,6S9,7.57,9,9.5V10H8c-0.552,0-1,0.448-1,1v0.75H4.538  C4.918,7.69,8.342,4.5,12.5,4.5c3.63,0,6.697,2.432,7.672,5.75h1.547C20.705,6.096,16.962,3,12.5,3C7.262,3,3,7.262,3,12.5  c0,0.253,0.018,0.502,0.038,0.75h0.744h0.756H7V16c0,0.553,0.448,1,1,1h9c0.553,0,1-0.447,1-1v-2.75h2.462  c-0.38,4.06-3.804,7.25-7.962,7.25c-3.63,0-6.697-2.432-7.672-5.75H3.28C4.295,18.904,8.038,22,12.5,22c5.238,0,9.5-4.262,9.5-9.5  c0-0.169,0-0.75,0-0.75H21.962z M13.212,13.5h0.038V15h-1.5v-1.5h0.038c-0.318-0.227-0.538-0.58-0.538-1c0-0.69,0.56-1.25,1.25-1.25  s1.25,0.56,1.25,1.25C13.75,12.92,13.529,13.273,13.212,13.5z M14,10h-3V9.5C11,8.673,11.673,8,12.5,8S14,8.673,14,9.5V10z"></path>
</svg>