<svg xmlns="http://www.w3.org/2000/svg" xmlns:xlink="http://www.w3.org/1999/xlink" class="addmask" version="1.1"  x="0px" y="0px" width="32" height="32" viewBox="0 0 24 24" enable-background="new 0 0 24 24" xml:space="preserve" style="fill: rgb(0, 0, 0);" viewbox="0 0 32 32">
<g class="addon_content" transform="translate(0,12) scale(1,1)">
	<g>
		<defs>
			<path class="mask_container" id="263_refresh_mask" d="M-18-30v72h72v-72H-18z M25.5,6c0,4.14-3.36,7.5-7.5,7.5s-7.5-3.36-7.5-7.5s3.36-7.5,7.5-7.5h7.5V6z" transform="translate(0,12) scale(1,1)" style="fill: rgb(0, 0, 0);"></path>
		</defs>
		<clipPath id="263_refresh_mask_1_">
			<use xlink:href="#263_refresh_mask" overflow="visible"></use>
		</clipPath>	
	</g>
	<path id="263_refresh_addon" d="M19,3h1.65C19.94,2.38,19.01,2,18,2c-2.21,0-4,1.79-4,4s1.79,4,4,4c1.86,0,3.43-1.27,3.87-3h2.04  c-0.47,2.84-2.94,5-5.91,5c-3.311,0-6-2.69-6-6s2.689-6,6-6c1.54,0,2.94,0.58,4,1.54V0h2v5h-5V3z" style="fill: rgb(0, 0, 0);"></path>
</g>
<g id="263_refresh_icon_placeholder" clip-path="url(#263_refresh_mask_1_)">
	<g class="icnplhld"><!--?xml version="1.0" encoding="utf-8"?-->
<!-- Generator: Adobe Illustrator 16.0.0, SVG Export Plug-In . SVG Version: 6.00 Build 0)  -->

<g xmlns="http://www.w3.org/2000/svg" xmlns:xlink="http://www.w3.org/1999/xlink" version="1.1" x="0px" y="0px" width="24px" height="24px" viewBox="0 0 24 24" style="enable-background:new 0 0 24 24;" xml:space="preserve" preserveAspectRatio="none" class="svgmask">
<path id="2634351383__x3C_Trazado_x3E_" d="M20.513,18C19.924,17.989,18,17.778,18,15.5V6h3V3H3v3h3v5.5c0,6.186-3.166,6.486-3.5,6.5v3  C2.565,21,9,20.892,9,11.5V6h6v9.5c0,4.035,3.289,5.5,5.5,5.5h1v-3H20.513z" style="fill: rgb(0, 0, 0);"></path>
</g></g>
</g>
</svg>