<svg xmlns="http://www.w3.org/2000/svg" xmlns:xlink="http://www.w3.org/1999/xlink" version="1.1"  x="0px" y="0px" width="32" height="32" viewBox="0 0 24 24" style="enable-background:new 0 0 24 24;" xml:space="preserve" viewbox="0 0 32 32">
<path id="2635350861__x3C_Trazado_x3E__grid" d="M19.667,6.888l1.916-1.917c0,0,1.277,2.556-0.64,4.473c-1.916,1.915-4.471,0.638-4.471,0.638  l-6.39,6.389c0,0,1.278,2.556-0.638,4.473c-1.917,1.917-4.472,0.639-4.472,0.639l1.917-1.917v-2.557L4.333,17.11l-1.917,1.917  c0,0-1.277-2.556,0.639-4.473c1.916-1.916,4.472-0.638,4.472-0.638l6.39-6.389c0,0-1.279-2.556,0.637-4.472  c1.918-1.917,4.473-0.639,4.473-0.639L17.11,4.333v2.555H19.667z"></path>
</svg>