<svg xmlns="http://www.w3.org/2000/svg" xmlns:xlink="http://www.w3.org/1999/xlink" version="1.1"  x="0px" y="0px" width="32" height="32" viewBox="0 0 24 24" style="enable-background:new 0 0 24 24;" xml:space="preserve" viewbox="0 0 32 32">
<path d="M7,13v1h1v-1H7z M11.5,13H11v3h0.5c0.5-0.02,0.5-0.33,0.5-0.5v-2C11.98,13,11.67,13,11.5,13z M11.5,13H11v3h0.5  c0.5-0.02,0.5-0.33,0.5-0.5v-2C11.98,13,11.67,13,11.5,13z M7,13v1h1v-1H7z M16,10c-2.2,0-4-1.79-4-4V2H6C4.9,2,4,2.9,4,4v16  c0,1.1,0.9,2,2,2h12c1.1,0,2-0.9,2-2V10H16z M9,15H7v2H6v-5h3V15z M13,15.5c0,1.5-1.5,1.5-1.5,1.5H10v-5h1.5c1.5,0,1.5,1.5,1.5,1.5  S13,14.5,13,15.5z M17,13h-2v1h2v1h-2v2h-1v-5h3V13z M11.5,13H11v3h0.5c0.5-0.02,0.5-0.33,0.5-0.5v-2C11.98,13,11.67,13,11.5,13z   M8,13H7v1h1V13z M7,13v1h1v-1H7z M7,13v1h1v-1H7z M14,2v4c0,1.1,0.9,2,2,2h4L14,2z"></path>
</svg>