<svg xmlns="http://www.w3.org/2000/svg" xmlns:xlink="http://www.w3.org/1999/xlink" version="1.1"  x="0px" y="0px" width="32" height="32" viewBox="0 0 24 24" style="enable-background:new 0 0 24 24;" xml:space="preserve" viewbox="0 0 32 32">
<path d="M16,6C14,6,4,6,4,6C2,6,2,8,2,8v12c0,0,0,2,1.9,2S16,22,16,22c2,0,2-2,2-2V8C18,8,17.98,6,16,6z M6,9c1.1,0,2,0.9,2,2  s-0.9,2-2,2s-2-0.9-2-2S4.9,9,6,9z M4,20l3-5l1.98,3.29L12,13l4,7H4z M20,6c0-2-2-2-2-2H6c0-2,2-2,2-2h12c2,0,2,2,2,2v12  c0,2-2,2-2,2V6z"></path>
</svg>