<svg xmlns="http://www.w3.org/2000/svg" xmlns:xlink="http://www.w3.org/1999/xlink" version="1.1"  x="0px" y="0px" width="32" height="32" viewBox="0 0 24 24" enable-background="new 0 0 24 24" xml:space="preserve" preserveAspectRatio="none" viewbox="0 0 32 32">
<path d="M18,10h-1V7c0-1.73-1.04-5-5-5S7,5.27,7,7h2c0.01-0.52,0.19-3,3-3c2.82,0,2.99,2.5,3,3v3H6c-2,0-2,2-2,2v8c0,0,0,2,2,2h12  c0,0,2,0,2-2v-8C20,12,20,10,18,10z M12,18c-1.1,0-2-0.9-2-2s0.9-2,2-2c1.1,0,2,0.9,2,2S13.1,18,12,18z"></path>
</svg>