<svg xmlns="http://www.w3.org/2000/svg" xmlns:xlink="http://www.w3.org/1999/xlink" version="1.1"  x="0px" y="0px" width="32" height="32" viewBox="0 0 32 32" style="enable-background:new 0 0 32 32;" xml:space="preserve" viewbox="0 0 32 32">
<path d="M16,3.996c-7.176,0-12.994,4.703-12.994,10.505c0,4.046,2.833,7.552,6.979,9.307l0.023,5.597l4.173-4.514  c0.596,0.068,1.2,0.115,1.819,0.115c7.177,0,12.994-4.703,12.994-10.505S23.177,3.996,16,3.996z M16,24  c-0.751,0-1.484-0.062-2.197-0.166l-2.805,2.958l0-3.664c-4.129-1.502-7.001-4.796-7.001-8.627C3.996,9.255,9.37,5.002,16,5.002  s12.005,4.253,12.005,9.499S22.63,24,16,24z"></path>
</svg>