<svg version="1.1"  xmlns="http://www.w3.org/2000/svg" xmlns:xlink="http://www.w3.org/1999/xlink" x="0px" y="0px" width="32" height="32" viewBox="0 0 32 32" style="enable-background:new 0 0 32 32;" xml:space="preserve" viewbox="0 0 32 32">
<style type="text/css">

	.st0{fill-rule:evenodd;clip-rule:evenodd;}

</style>
<path class="st0" d="M25.414,9L19,2.586C18.646,2.232,18.621,2,18,2H7.5C6.672,2,6,2.672,6,3.5v25C6,29.328,6.672,30,7.5,30h17
	c0.828,0,1.5-0.672,1.5-1.5V10C26,9.368,25.768,9.354,25.414,9z M19,4l5,5c-1.861,0-4.5,0-4.5,0C19.224,9,19,8.776,19,8.5V4z
	 M25,28.5c0,0.276-0.225,0.5-0.5,0.5h-17C7.225,29,7,28.776,7,28.5v-25C7,3.224,7.225,3,7.5,3C8.5,3,18,3,18,3v5.5
	c0,0.828,0.672,1.5,1.5,1.5H25C25,10,25,28,25,28.5z M15.601,12C14.8,12,14,12,14,12v8c0,0,0.8,0,1.601,0
	C17.2,20,18,18.925,18,16.035S17.2,12,15.601,12z M15.675,19C15.274,19,15,19,15,19v-6c0,0,0.274,0,0.675,0
	C16.476,13,17,13.86,17,16.03C17,18.195,16.476,19,15.675,19z M19,12h4v1h-3v2h2v1h-2v4h-1V12z M10.6,12C9.8,12,9,12,9,12v8h1v-3
	c0,0,0.395,0,0.6,0c1.6,0,2.4-0.67,2.4-2.475C13,12.715,12.199,12,10.6,12z M10.675,16C10.275,16,10,16,10,16v-3
	c0,0,0.275,0,0.675,0c0.8,0,1.325,0.43,1.325,1.515C12,15.595,11.475,16,10.675,16z"></path>
</svg>