<svg version="1.1"  xmlns="http://www.w3.org/2000/svg" xmlns:xlink="http://www.w3.org/1999/xlink" x="0px" y="0px" width="32" height="32" viewBox="0 0 24 24" style="enable-background:new 0 0 24 24;" xml:space="preserve" preserveAspectRatio="none" viewbox="0 0 32 32">
<path d="M18.707,11.707c0.286-0.286,0.372-0.716,0.217-1.09C18.77,10.244,18.404,10,18,10h-2V8.414l2.707-2.707
	c0.286-0.286,0.372-0.716,0.217-1.09C18.77,4.244,18.404,4,18,4h-2V3c0-0.552-0.447-1-1-1H9C8.448,2,8,2.448,8,3v1H6
	C5.596,4,5.231,4.244,5.076,4.617c-0.155,0.374-0.069,0.804,0.217,1.09L8,8.414V10H6c-0.404,0-0.769,0.244-0.924,0.617
	c-0.155,0.374-0.069,0.804,0.217,1.09L8,14.414V16H6c-0.404,0-0.769,0.243-0.924,0.617s-0.069,0.804,0.217,1.09L8,20.414V21
	c0,0.553,0.448,1,1,1h6c0.553,0,1-0.447,1-1v-0.586l2.707-2.707c0.286-0.286,0.372-0.716,0.217-1.09C18.77,16.243,18.404,16,18,16
	h-2v-1.586L18.707,11.707z M12,20c-1.105,0-2-0.895-2-2c0-1.105,0.895-2,2-2s2,0.895,2,2C14,19.105,13.105,20,12,20z M12,14
	c-1.105,0-2-0.895-2-2c0-1.105,0.895-2,2-2s2,0.895,2,2C14,13.105,13.105,14,12,14z M12,8c-1.105,0-2-0.895-2-2c0-1.105,0.895-2,2-2
	s2,0.895,2,2C14,7.105,13.105,8,12,8z"></path>
</svg>