<svg xmlns="http://www.w3.org/2000/svg" xmlns:xlink="http://www.w3.org/1999/xlink" version="1.1"  x="0px" y="0px" width="32" height="32" viewBox="0 0 24 24" style="enable-background:new 0 0 24 24;" xml:space="preserve" viewbox="0 0 32 32">
<path d="M20,6h-8l-2-2H4C2,4,2,6,2.01,6L2,18c0,2,2,2,2,2h16c2,0,2-2,2-2V8C22,6,20,6,20,6z M20,18c0,0.01-7,0-7,0v-4.59l1.29,1.3  l1.42-1.42L12,9.59l-3.71,3.7l1.42,1.42l1.29-1.3V18c0,0-6.98,0.01-7,0V6c0-0.01,5.17,0,5.17,0l2,2H20C20.01,8,20,18,20,18z"></path>
</svg>