<svg version="1.1"  xmlns="http://www.w3.org/2000/svg" xmlns:xlink="http://www.w3.org/1999/xlink" x="0px" y="0px" width="32" height="32" viewBox="0 0 24 24" style="enable-background:new 0 0 24 24;" xml:space="preserve" viewbox="0 0 32 32">
<path d="M2,12h2v2h2v-2h6V2H2V12z M4,4h6v6H4V4z M6,6h2v2H6V6z M18,10h-4V2h2v6h2V10z M20,12h2v6h-2V12z M20,8h2v2h-2V8z M22,2v4h-4
	V2H22z M18,18h2v2h-2V18z M16,18h-2v-6h4v4h-2V18z M10,20h2v2h-2V20z M10,16H8v-2h4v4h-2V16z M20,22v-2h2v2H20z M18,20v2h-4v-2H18z
	 M2,22h6v-6H4v-2H2V22z M6,18v2H4v-2H6z"></path>
</svg>