<svg xmlns="http://www.w3.org/2000/svg" xmlns:xlink="http://www.w3.org/1999/xlink" version="1.1"  x="0px" y="0px" width="32" height="32" viewBox="0 0 24 24" enable-background="new 0 0 24 24" xml:space="preserve" preserveAspectRatio="none" viewbox="0 0 32 32">
<path d="M16,12c0,2.21-1.79,4-4,4s-4-1.79-4-4s1.79-4,4-4S16,9.79,16,12z M22,12c0,5.52-4.48,10-10,10C6.48,22,2,17.52,2,12  C2,6.48,6.48,2,12,2C17.52,2,22,6.48,22,12z M20,12c0-4.41-3.59-8-8-8s-8,3.59-8,8s3.59,8,8,8S20,16.41,20,12z"></path>
</svg>