<svg xmlns="http://www.w3.org/2000/svg" xmlns:xlink="http://www.w3.org/1999/xlink" version="1.1"  x="0px" y="0px" width="32" height="32" viewBox="0 0 24 24" style="enable-background:new 0 0 24 24;" xml:space="preserve" viewbox="0 0 32 32">
<path id="2632851152__x3C_Trazado_compuesto_x3E__grid" d="M12,4V1L8,5l4,4V6c3.311,0,6,2.69,6,6c0,1.01-0.25,1.97-0.7,2.8l1.46,1.46  C19.54,15.03,20,13.57,20,12C20,7.58,16.42,4,12,4z M12,18c-3.31,0-6-2.689-6-6c0-1.01,0.25-1.97,0.7-2.8L5.24,7.74  C4.46,8.97,4,10.43,4,12c0,4.42,3.58,8,8,8v3l4-4l-4-4V18z"></path>
</svg>