<svg xmlns="http://www.w3.org/2000/svg" xmlns:xlink="http://www.w3.org/1999/xlink" version="1.1"  x="0px" y="0px" width="32" height="32" viewBox="0 0 24 24" style="enable-background:new 0 0 24 24;" xml:space="preserve" viewbox="0 0 32 32">
<path d="M15,6H5C3.9,6,3,6.9,3,8v12c0,1.1,0.9,2,2,2h10c1.1,0,2-0.9,2-2V8C17,6.9,16.1,6,15,6z M7,19H5v-2h2V19z M7,15H5v-2h2V15z   M7,11H5V9h2V11z M15,19H9v-2h6V19z M15,15H9v-2h6V15z M15,11H9V9h6V11z M21,4v12c0,1.1-0.9,2-2,2V6c0-1.1-0.9-2-2-2H7  c0-1.1,0.9-2,2-2h10C20.1,2,21,2.9,21,4z"></path>
</svg>