<svg xmlns="http://www.w3.org/2000/svg" xmlns:xlink="http://www.w3.org/1999/xlink" version="1.1"  x="0px" y="0px" width="32" height="32" viewBox="0 0 40 40" enable-background="new 0 0 40 40" xml:space="preserve" preserveAspectRatio="none" viewbox="0 0 32 32">
<g id="55152587_Shape_5_xA0_Clipping_Path_1_">
	<g>
		<path d="M31,18c0-0.87,0-2.406,0-5c0-6.405-4.72-11-11-11S9,6.595,9,13c0,0.579,0,3.45,0,5H5v19h30V18H31z M14.005,12.903    c0-3.379,2.569-5.914,5.995-5.914S26,9.62,26,13c0,2.118,0,3.937,0,5H14.002C14.003,17.046,14.005,15.393,14.005,12.903z M27,30    H13v-4h14V30z"></path>
	</g>
</g>
</svg>