<svg xmlns="http://www.w3.org/2000/svg" xmlns:xlink="http://www.w3.org/1999/xlink" version="1.1"  x="0px" y="0px" width="32" height="32" viewBox="0 0 24 24" style="enable-background:new 0 0 24 24;" xml:space="preserve" viewbox="0 0 32 32">
<path d="M16,22h-3v-1c0-1.103-0.897-2-2-2s-2,0.897-2,2v1H5c-1.654,0-3-1.346-3-3v-4h1c1.103,0,2-0.897,2-2c0-1.103-0.897-2-2-2H2V8  c0-1.654,1.346-3,3-3h2.126C7.572,3.277,9.14,2,11,2s3.429,1.277,3.873,3H16c1.654,0,3,1.346,3,3v1.126c1.724,0.445,3,2.013,3,3.874  s-1.276,3.429-3,3.873V19C19,20.654,17.654,22,16,22z M14.873,20H16c0.552,0,1-0.448,1-1v-4h1c1.103,0,2-0.897,2-2  c0-1.103-0.897-2-2-2h-1V8c0-0.551-0.448-1-1-1h-3V6c0-1.103-0.897-2-2-2S9,4.897,9,6v1H5C4.449,7,4,7.449,4,8v1.126  C5.723,9.572,7,11.14,7,13s-1.277,3.429-3,3.873V19c0,0.552,0.449,1,1,1h2.126C7.572,18.276,9.14,17,11,17S14.429,18.276,14.873,20z  "></path>
</svg>