<svg xmlns="http://www.w3.org/2000/svg" xmlns:xlink="http://www.w3.org/1999/xlink" version="1.1"  x="0px" y="0px" width="32" height="32" viewBox="0 0 24 24" style="enable-background:new 0 0 24 24;" xml:space="preserve" preserveAspectRatio="none" viewbox="0 0 32 32">
<path d="M20,6h-8l-2-2H4C2,4,1.99,6,2,6v12c0,2,2,2,2,2h16c2,0,2-2,2-2V8C22,6,20,6,20,6z M7,16c-1.1,0-2-0.9-2-2c0-1.1,0.9-2,2-2  s2,0.9,2,2C9,15.1,8.1,16,7,16z M12,16c-1.1,0-2-0.9-2-2c0-1.1,0.9-2,2-2c1.1,0,2,0.9,2,2C14,15.1,13.1,16,12,16z M17,16  c-1.1,0-2-0.9-2-2c0-1.1,0.9-2,2-2s2,0.9,2,2C19,15.1,18.1,16,17,16z"></path>
</svg>