<svg xmlns="http://www.w3.org/2000/svg" xmlns:xlink="http://www.w3.org/1999/xlink" version="1.1"  x="0px" y="0px" width="32" height="32" viewBox="0 0 24 24" enable-background="new 0 0 24 24" xml:space="preserve" viewbox="0 0 32 32">
<path d="M12,2C6.49,2,2,6.49,2,12s4.49,10,10,10s10-4.49,10-10S17.51,2,12,2z M13,19h-2v-2h2V19z M15.07,11.25l-0.9,0.92  C13.45,12.9,13,13.5,13,15h-2v-0.5c0-1.1,0.45-2.1,1.17-2.83l1.24-1.26C13.78,10.05,14,9.55,14,9c0-1.1-0.9-2-2-2c-1.1,0-2,0.9-2,2  H8c0-2.21,1.79-4,4-4s4,1.79,4,4C16,9.88,15.64,10.68,15.07,11.25z"></path>
</svg>