<svg xmlns="http://www.w3.org/2000/svg" xmlns:xlink="http://www.w3.org/1999/xlink" version="1.1"  x="0px" y="0px" width="32" height="32" viewBox="0 0 24 24" style="enable-background:new 0 0 24 24;" xml:space="preserve" viewbox="0 0 32 32">
<path d="M15,14V4c0-0.83-0.34-1.58-0.88-2.12S12.83,1,12,1c-1.66,0-3,1.34-3,3v10c-1.21,0.91-2,2.37-2,4c0,2.76,2.24,5,5,5  s5-2.24,5-5C17,16.37,16.21,14.91,15,14z M11,4c0,0,0-1,1-1s1,1,1,1v5h-2V4z M12,21c-1.66,0-3-1.34-3-3c0-1.31,0.83-2.42,2-2.82V11  h2v4.18c1.17,0.4,2,1.511,2,2.82C15,19.66,13.66,21,12,21z"></path>
</svg>