<svg xmlns="http://www.w3.org/2000/svg" xmlns:xlink="http://www.w3.org/1999/xlink" version="1.1"  x="0px" y="0px" width="32" height="32" viewBox="0 0 24 24" style="enable-background:new 0 0 24 24;" xml:space="preserve" preserveAspectRatio="none" viewbox="0 0 32 32">
<path d="M3.29,7.24L2,5.71l4.6-3.85l1.28,1.53L3.29,7.24z M22,5.72l-4.6-3.86l-1.29,1.53l4.6,3.86L22,5.72z M21,13  c0,4.97-4.03,9-9,9c-4.98,0-9-4.03-9-9c0-4.97,4.03-9,9-9C16.97,4,21,8.03,21,13z M19,13c0-3.87-3.13-7-7-7s-7,3.13-7,7s3.13,7,7,7  S19,16.87,19,13z M13,8h-2v6h4v-2h-2V8z"></path>
</svg>