<svg xmlns="http://www.w3.org/2000/svg" xmlns:xlink="http://www.w3.org/1999/xlink" version="1.1"  x="0px" y="0px" width="32" height="32" viewBox="0 0 24 24" style="enable-background:new 0 0 24 24;" xml:space="preserve" viewbox="0 0 32 32">
<path d="M20,8l-4,4h3c0,3.86-3.14,7-7,7c-1.93,0-3.68-0.78-4.95-2.05c-0.2-0.2-0.38-0.4-0.55-0.62l-1.42,1.42  C6.73,19.74,9.22,21,12,21c4.97,0,9-4.03,9-9h3L20,8z M8,12H5c0-3.87,3.13-7,7-7c2.24,0,4.22,1.04,5.5,2.66l1.42-1.41  C17.27,4.27,14.79,3,12,3c-4.97,0-9,4.03-9,9H0l4,4L8,12z"></path>
<polygon points="15,13 11,13 11,7 13,7 13,11 15,11 "></polygon>
</svg>