<svg xmlns="http://www.w3.org/2000/svg" xmlns:xlink="http://www.w3.org/1999/xlink" version="1.1"  x="0px" y="0px" width="32" height="32" viewBox="0 0 24 24" style="enable-background:new 0 0 24 24;" xml:space="preserve" preserveAspectRatio="none" viewbox="0 0 32 32">
<path id="2632851219__x3C_Trazado_compuesto_x3E__focus" d="M9,4v5H4V4H9 M20,15v5h-5v-5H20 M14,2H2v9h9V4h2.99C14.5,4.01,17,4.18,17,7v1.59  l-1.29-1.3l-1.42,1.42l3.71,3.7l3.71-3.7l-1.42-1.42L19,8.59V7C19,3.04,15.73,2,14,2L14,2z M6,11.59l-3.71,3.7l1.42,1.42L5,15.41V17  c0,3.96,3.27,5,5,5h12v-9h-9v7h-2.99C9.5,19.99,7,19.82,7,17v-1.59l1.29,1.3l1.42-1.42L6,11.59L6,11.59z"></path>
</svg>