<svg xmlns="http://www.w3.org/2000/svg" xmlns:xlink="http://www.w3.org/1999/xlink" version="1.1"  x="0px" y="0px" width="32" height="32" viewBox="0 0 24 24" enable-background="new 0 0 24 24" xml:space="preserve" viewbox="0 0 32 32">
<path d="M22,9v3h-5.5L15,9H9l-1.5,3H2V9c0-5,5-5,5-5h10C17,4,22,4,22,9z M12,17l-3.75-3H2v4c0,0,0,2,2,2h16c2,0,2-2,2-2v-4h-6.25  L12,17z M12.02,10.02c-1.1,0-1.99,0.88-2,1.98c0,0.01,0,0.01,0,0.02c0,0.74,0.4,1.39,1,1.74v1.26h2v-1.27c0.601-0.35,1-0.99,1-1.73  c0-0.01,0-0.01,0-0.02C14.01,10.9,13.11,10.02,12.02,10.02z"></path>
</svg>