<svg xmlns="http://www.w3.org/2000/svg" xmlns:xlink="http://www.w3.org/1999/xlink" version="1.1"  x="0px" y="0px" width="32" height="32" viewBox="0 0 24 24" style="enable-background:new 0 0 24 24;" xml:space="preserve" viewbox="0 0 32 32">

<path id="58185531_shock_x5F_color_grid" class="stshockcolor" d="M14,12c0,1.104-0.896,2-2,2c-1.104,0-2-0.896-2-2c0-1.104,0.896-2,2-2  C13.104,10,14,10.896,14,12z M12,16c-1.104,0-2,0.896-2,2s0.896,2,2,2c1.104,0,2-0.896,2-2S13.104,16,12,16z M12,4  c-1.104,0-2,0.896-2,2s0.896,2,2,2c1.104,0,2-0.896,2-2S13.104,4,12,4z" style="fill:#455A64;;" data-st="fill:#455A64;;"></path>
</svg>