<svg xmlns="http://www.w3.org/2000/svg" xmlns:xlink="http://www.w3.org/1999/xlink" version="1.1"  x="0px" y="0px" width="32" height="32" viewBox="0 0 24 24" style="enable-background:new 0 0 24 24;" xml:space="preserve" viewbox="0 0 32 32">

<rect class="st1" width="24" height="24" style="fill:none;;"></rect>
<path id="58439729_shock_x5F_color_grid" class="stshockcolor" d="M20,8v12c0,1.1-0.9,2-2,2H6c-1.1,0-2-0.9-2-2V4c0-1.1,0.9-2,2-2h8L20,8z" style="fill:#1E88E5;;" data-st="fill:#1E88E5;;"></path>
<path class="st2" d="M20,8v12c0,1.1-0.9,2-2,2H6c-1.1,0-2-0.9-2-2V4c0-1.1,0.9-2,2-2h8v4c0,1.1,0.9,2,2,2H20z" style="opacity:0.1;fill:#FFFFFF;;"></path>
<path class="st3" d="M13,15h-2l0,0c0-1.414,0.747-2.162,1.293-2.707C12.783,11.803,13,11.562,13,11c0-0.805-0.55-0.988-1.012-1  c-0.794,0-0.977,0.55-0.988,1.012L9,11c0-1.206,0.799-3,3-3c1.206,0,3,0.799,3,3c0,1.414-0.747,2.162-1.293,2.707  C13.217,14.197,13,14.438,13,15L13,15z M13,16h-2v2h2V16z" style="opacity:0.9;fill:#FFFFFF;;"></path>
</svg>